<?xml version="1.0" encoding="utf-8"?>
<!-- Generator: Adobe Illustrator 19.1.0, SVG Export Plug-In . SVG Version: 6.00 Build 0)  -->
<svg version="1.1" id="Layer_1" xmlns:sketch="http://www.bohemiancoding.com/sketch/ns"
	 xmlns="http://www.w3.org/2000/svg" xmlns:xlink="http://www.w3.org/1999/xlink" x="0px" y="0px" width="334px" height="27px"
	 viewBox="-232 287 334 27" style="enable-background:new -232 287 334 27;" xml:space="preserve">
<style type="text/css">
	.st0{fill:#FFFFFF;}
</style>
<title>Treasure Data White</title>
<desc>Created with Sketch.</desc>
<g>
	<polygon class="st0" points="-199.4,287 -212.8,287 -226.2,287 -232,293.1 -212.8,314 -193.7,293.1 	"/>
	<polygon class="st0" points="-165.6,290.8 -165.6,292.8 -171.5,292.8 -171.5,310.3 -173.8,310.3 -173.8,292.8 -179.7,292.8 
		-179.7,290.8 	"/>
	<g>
		<path class="st0" d="M-150.6,300.4c2.6,0,4.3-1.5,4.3-4.2c0-3.3-2-3.6-5.6-3.6h-2.6v7.8H-150.6z M-154.4,310.3h-2.3v-19.5h6.2
			c4.1,0,6.6,1.4,6.6,5.3c0,3.3-2,4.8-3.7,5.4c1,0.3,1.3,0.8,1.9,2l3.2,6.9h-2.5l-2.9-6.1c-0.5-1.1-1.1-1.9-2.3-1.9h-4.3V310.3z"/>
	</g>
	<polygon class="st0" points="-133.7,290.8 -122.8,290.8 -122.8,292.8 -131.4,292.8 -131.4,299.3 -124,299.3 -124,301.3 
		-131.4,301.3 -131.4,308.3 -122.6,308.3 -122.6,310.3 -133.7,310.3 	"/>
	<path class="st0" d="M-110.2,302.4h6.6l-3.3-9.5L-110.2,302.4z M-115.2,310.3l6.9-19.5h2.8l7,19.5h-2.4l-2.1-6h-7.7l-2.1,6H-115.2z
		"/>
	<g>
		<path class="st0" d="M-90.3,306.9c0.9,0.6,3,1.7,5.3,1.7c2,0,4.1-0.6,4.1-3.6c0-2.3-2.1-3.1-4.4-3.8c-2.8-0.8-5.6-1.8-5.6-5.4
			c0-3.3,2.5-5.4,6.2-5.4c2.6,0,5,1.2,6.3,2.6l-1.3,1.6c-1.5-1.3-3.2-2.2-5.1-2.2c-1.6,0-3.8,0.7-3.8,3.2c0,2.3,2,3,4.5,3.8
			c2.7,0.9,5.5,1.9,5.5,5.6c0,3.7-2.5,5.7-6.6,5.7c-2.8,0-5.4-1.1-6.2-1.8L-90.3,306.9z"/>
		<path class="st0" d="M-67,290.8v13.4c0,3.4,2,4.5,4.8,4.5c2.7,0,4.6-1.4,4.6-4.3v-13.6h2.3v14c0,3.8-2.8,5.8-7,5.8
			c-4.6,0-6.9-1.8-6.9-6.4v-13.5H-67z"/>
		<path class="st0" d="M-39.8,300.4c2.6,0,4.3-1.5,4.3-4.2c0-3.3-2-3.6-5.6-3.6h-2.6v7.8H-39.8z M-43.6,310.3h-2.3v-19.5h6.2
			c4.1,0,6.6,1.4,6.6,5.3c0,3.3-2,4.8-3.7,5.4c1,0.3,1.3,0.8,1.9,2l3.2,6.9h-2.5l-2.9-6.1c-0.5-1.1-1.1-1.9-2.3-1.9h-4.3V310.3z"/>
	</g>
	<polygon class="st0" points="-22.8,290.8 -11.9,290.8 -11.9,292.8 -20.5,292.8 -20.5,299.3 -13.1,299.3 -13.1,301.3 -20.5,301.3 
		-20.5,308.3 -11.7,308.3 -11.7,310.3 -22.8,310.3 	"/>
	<g>
		<path class="st0" d="M12.5,308.1h3.9c3.9,0,6.3-2.8,6.3-8c0-6-2.9-7.7-6.7-7.7h-3.5V308.1z M10.2,290.4h6c5.4,0,8.9,3,8.9,9
			c0,7.8-4.1,10.5-8.7,10.5h-6.1V290.4z"/>
	</g>
	<path class="st0" d="M37.4,302H44l-3.3-9.5L37.4,302z M32.5,309.9l6.9-19.5h2.8l7,19.5h-2.4l-2.1-6h-7.7l-2.1,6H32.5z"/>
	<polygon class="st0" points="68.5,290.4 68.5,292.4 62.6,292.4 62.6,309.9 60.2,309.9 60.2,292.4 54.4,292.4 54.4,290.4 	"/>
	<path class="st0" d="M78.7,302h6.6l-3.3-9.5L78.7,302z M73.7,309.9l6.9-19.5h2.8l7,19.5H88l-2.1-6h-7.7l-2.1,6H73.7z"/>
</g>
</svg>
